<svg width="287" height="80" xmlns="http://www.w3.org/2000/svg" preserveAspectRatio="xMidYMid meet" class="iconify iconify--logos" role="img" aria-hidden="true">
 <defs>
  <linearGradient y2="78.411%" y1="7.652%" x2="57.636%" x1="-.828%" id="IconifyId1813088fe1fbc01fb466">
   <stop stop-color="#41D1FF" offset="0%"/>
   <stop stop-color="#BD34FE" offset="100%"/>
  </linearGradient>
  <linearGradient y2="89.03%" y1="2.242%" x2="50.316%" x1="43.376%" id="IconifyId1813088fe1fbc01fb467">
   <stop stop-color="#FFEA83" offset="0%"/>
   <stop stop-color="#FFDD35" offset="8.333%"/>
   <stop stop-color="#FFA800" offset="100%"/>
  </linearGradient>
 </defs>
 <g>
  <title>Layer 1</title>
  <path id="svg_1" d="m62.79818,20.45295l-28.65464,50.08951c-0.59165,1.03422 -2.11164,1.04028 -2.71211,0.01118l-29.2227,-50.09604c-0.65432,-1.12134 0.32668,-2.47981 1.62674,-2.25247l28.68537,5.01203a1.55764,1.52269 0 0 0 0.55329,-0.00093l28.08538,-5.00411c1.29577,-0.23084 2.2813,1.11715 1.63865,2.24082l0.00002,0.00001z" fill="url(#IconifyId1813088fe1fbc01fb466)" stroke="null"/>
  <path id="svg_2" d="m44.6363,5.01493l-22.2788,4.15576a0.81813,0.77882 0 0 0 -0.65941,0.71829l-1.37039,22.03378a0.81813,0.77882 0 0 0 1.00063,0.80503l6.20282,-1.36269c0.5803,-0.1275 1.10478,0.35914 0.98536,0.91466l-1.8428,8.59059c-0.12392,0.57816 0.44612,1.07242 1.03919,0.90084l3.8313,-1.10793c0.59382,-0.17159 1.16461,0.32411 1.03894,0.90274l-2.92855,13.49371c-0.18325,0.84412 0.99613,1.30431 1.48781,0.58078l0.3287,-0.48331l18.1541,-34.48915c0.30417,-0.57744 -0.2203,-1.23591 -0.88623,-1.11341l-6.38508,1.17299c-0.59983,0.1101 -1.11028,-0.42182 -0.94105,-0.98043l4.16726,-13.75205c0.16948,-0.56004 -0.34297,-1.0922 -0.94355,-0.9802l-0.00025,0z" fill="url(#IconifyId1813088fe1fbc01fb467)" stroke="null"/>
  <rect fill="#fff" x="126.66647" y="252.83332" width="299.99998" height="0" id="svg_3" stroke="#000"/>
  <text fill="#000b6d" x="49.19393" y="51.64456" id="svg_4" stroke-width="0" font-size="70" font-family="Noto Sans JP" text-anchor="start" xml:space="preserve" font-weight="bold" font-style="normal" stroke="#000" transform="matrix(0.307724 0 0 0.318158 51.1809 24.5361)">i - Consult</text>
  <path id="svg_5" d="m574.432,-19.937l-88.992,17.438a3.268,3.268 0 0 0 -2.634,3.014l-5.474,92.456a3.268,3.268 0 0 0 3.997,3.378l24.777,-5.718c2.318,-0.535 4.413,1.507 3.936,3.838l-7.361,36.047c-0.495,2.426 1.782,4.5 4.151,3.78l15.304,-4.649c2.372,-0.72 4.652,1.36 4.15,3.788l-11.698,56.621c-0.732,3.542 3.979,5.473 5.943,2.437l1.313,-2.028l72.516,-144.72c1.215,-2.423 -0.88,-5.186 -3.54,-4.672l-25.505,4.922c-2.396,0.462 -4.435,-1.77 -3.759,-4.114l16.646,-57.705c0.677,-2.35 -1.37,-4.583 -3.769,-4.113l-0.001,0z" fill="url(#IconifyId1813088fe1fbc01fb467)"/>
  <path id="svg_6" d="m59.59427,198.06447l-110.21892,17.84543a4.0475,3.34436 0 0 0 -3.26228,3.08442l-6.77969,94.61619a4.0475,3.34436 0 0 0 4.95039,3.45693l30.68696,-5.8516c2.8709,-0.5475 5.46562,1.54221 4.87484,3.92767l-9.11679,36.88922c-0.61307,2.48268 2.20705,4.60514 5.14112,3.86832l18.95441,-4.75762c2.93778,-0.73682 5.76162,1.39178 5.13988,3.8765l-14.48828,57.94392c-0.9066,3.62476 4.9281,5.60087 7.36056,2.49394l1.62618,-2.07538l89.81297,-148.10132c1.50481,-2.47961 -1.0899,-5.30717 -4.38438,-4.78116l-31.58861,5.037c-2.96751,0.47279 -5.49286,-1.81136 -4.65562,-4.21012l20.61651,-59.05325c0.83848,-2.40491 -1.69678,-4.69008 -4.66801,-4.2091l-0.00124,0l0,0.00001z" fill="url(#IconifyId1813088fe1fbc01fb467)" stroke="null"/>
  <path id="svg_7" d="m279.29809,-71.12075l-61.70023,63.02996a2.26578,11.81224 0 0 0 -1.82621,10.89416l-3.79525,334.18384a2.26578,11.81224 0 0 0 2.77121,12.20984l17.17847,-20.66781c1.60712,-1.93377 3.05964,5.44708 2.72892,13.87252l-5.10355,130.29251c-0.3432,8.76882 1.2355,16.26533 2.87799,13.66288l10.61062,-16.80389c1.64456,-2.60245 3.22534,4.91574 2.87729,13.69179l-8.1105,204.6576c-0.50751,12.80262 2.75873,19.78225 4.12042,8.80858l0.91033,-7.33024l50.27704,-523.09298c0.84239,-8.75798 -0.61012,-18.74489 -2.45436,-16.88703l-17.68321,17.79066c-1.6612,1.66991 -3.07489,-6.3977 -2.6062,-14.87013l11.54106,-208.57574c0.46938,-8.49412 -0.94985,-16.56533 -2.61314,-14.86651l-0.00069,0l-0.00001,-0.00001z" fill="url(#IconifyId1813088fe1fbc01fb467)" stroke="null" transform="rotate(76 252.666 315.404)"/>
  <path id="svg_8" d="m494.28203,-5.32292l-101.93571,99.1028c-2.10473,2.04622 -7.51193,2.05821 -9.64805,0.02211l-103.95653,-99.11568c-2.32765,-2.21859 1.16215,-4.90634 5.78695,-4.45653l102.04507,9.91636a5.54114,3.01265 0 0 0 1.96825,-0.00185l99.91069,-9.9007c4.60955,-0.45671 8.11545,2.2103 5.82932,4.43349l0.00001,0z" fill="url(#IconifyId1813088fe1fbc01fb466)" stroke="null"/>
  <path id="svg_9" d="m576.8387,-1.95422l-164.88227,129.26478c-3.40443,2.66901 -12.15064,2.68463 -15.60582,0.02885l-168.15102,-129.2816c-3.76504,-2.89381 1.87976,-6.39959 9.36046,-5.81289l165.05921,12.93442a8.96285,3.92957 0 0 0 3.18364,-0.0024l161.60679,-12.91398c7.45602,-0.59572 13.12682,2.883 9.42899,5.78283l0.00002,-0.00001z" fill="url(#IconifyId1813088fe1fbc01fb466)" stroke="null"/>
  <path id="svg_10" d="m445.024,-1.84214l-138.57622,153.77138c-2.86127,3.17502 -10.21207,3.19359 -13.11599,0.03432l-141.32345,-153.7914c-3.16435,-3.44244 1.57985,-7.61285 7.86705,-6.91493l138.72493,15.38659a7.53288,4.67455 0 0 0 2.67571,-0.00286l135.82332,-15.36228c6.26645,-0.70866 11.03251,3.42957 7.92465,6.87916l0,0.00002z" fill="url(#IconifyId1813088fe1fbc01fb466)" stroke="null" transform="rotate(180 298.5 72.7509)"/>
  <text fill="#000b6d" x="26.56386" y="34.58867" id="svg_12" stroke-width="0" font-size="24" font-family="Noto Sans JP" text-anchor="start" xml:space="preserve" font-weight="bold" font-style="normal" stroke="#000" transform="matrix(0.953861 0 0 0.506265 33.3981 39.8594)">care at your</text>
  <text fill="#000b6d" x="88.26737" y="62.95256" id="svg_13" stroke-width="0" font-size="24" font-family="Noto Sans JP" text-anchor="start" xml:space="preserve" font-weight="bold" font-style="normal" stroke="#000" transform="matrix(0.922793 0 0 0.432911 10.1953 44.0071)">convenience</text>
 </g>
</svg>