<svg width="310" height="81" xmlns="http://www.w3.org/2000/svg" fill="none">

 <g>
  <title>Layer 1</title>
  <g stroke-width="0" fill="#000000" stroke="null" id="svg_4">
   <path stroke="null" id="svg_1" fill="#000000" d="m43.9541,17.30047c0,-1.27051 -0.99715,-2.30047 -2.22727,-2.30047l-4.45455,0c-1.23012,0 -2.22725,1.02995 -2.22725,2.30047l0,6.6717c0,0.12703 -0.09974,0.23002 -0.22273,0.23002l-6.45867,0c-1.23008,0 -2.22727,1.02997 -2.22727,2.30047l0,4.60095c0,1.27053 0.99717,2.30041 2.22727,2.30041l6.45867,0c0.12299,0 0.22273,0.10306 0.22273,0.23005l0,6.67115c0,1.27055 0.99713,2.30047 2.22725,2.30047l4.45455,0c1.23012,0 2.22727,-1.02992 2.22727,-2.30047l0,-6.67115c0,-0.12699 0.09978,-0.23005 0.22273,-0.23005l6.45954,0c1.23012,0 2.22727,-1.02988 2.22727,-2.30041l0,-4.60093c0,-1.27053 -0.99715,-2.30047 -2.22727,-2.30047l-6.45954,-0.00002c-0.12295,0 -0.22273,-0.10299 -0.22273,-0.23002l0,-6.6717z"/>
   <path stroke="null" id="svg_2" fill="#000000" d="m21.70073,44.32645l0,-5.16181c0,-1.90456 -1.49016,-3.45117 -3.33418,-3.46037c-1.85665,-0.0092 -3.36655,1.5427 -3.36655,3.46037l0,11.68848c0,0.23741 0.06145,0.47045 0.17803,0.67519l5.06731,8.89732c0.2001,0.35128 0.56526,0.56707 0.95989,0.56707l11.38981,0c0.12299,0 0.22271,-0.10306 0.22273,-0.23005l0.00042,-9.02729c0.00007,-1.43688 -0.52069,-2.82176 -1.45978,-3.88205l-2.24607,-3.07297c-1.5817,-2.0978 -2.69685,-1.42974 -4.21667,-0.51945l-0.1686,0.10099c-0.10969,0.06533 -0.27266,0.18128 -0.27266,0.18128l-0.5453,0.36301l4.12881,5.86069c0.55348,0.76238 0.4038,1.84383 -0.33429,2.4155c-0.73812,0.57167 -1.78514,0.41708 -2.33861,-0.3453l-3.11769,-4.2943c-0.36135,-0.49759 -0.55668,-1.10308 -0.55668,-1.72513l0,-2.30047c0,-0.06441 0.00343,-0.12814 0.01011,-0.19071z"/>
   <path stroke="null" id="svg_3" fill="#000000" d="m57.29925,39.16465l0,5.16181c0.00668,0.06257 0.01002,0.1263 0.01002,0.19071l0,2.30047c0,0.62205 -0.19533,1.22753 -0.5566,1.72513l-3.11774,4.2943c-0.55348,0.76238 -1.60052,0.91697 -2.33864,0.3453c-0.7379,-0.57167 -0.88757,-1.65312 -0.33409,-2.4155l4.1287,-5.86069l-0.54524,-0.36301c0,0 -0.16304,-0.11594 -0.27262,-0.18128c-0.0568,-0.03405 -0.11315,-0.06763 -0.16883,-0.10099c-1.51967,-0.9103 -2.63486,-1.57836 -4.21645,0.51945l-2.2462,3.07297c-0.93902,1.06029 -1.45975,2.44517 -1.45975,3.88205l0.00045,9.02729c0,0.12699 0.09978,0.23005 0.22273,0.23005l11.38983,0c0.39467,0 0.75972,-0.21578 0.95973,-0.56707l5.06749,-8.89732c0.11649,-0.20474 0.17796,-0.43778 0.17796,-0.67519l0,-11.68848c0,-1.91768 -1.50987,-3.46958 -3.36652,-3.46037c-1.84396,0.0092 -3.33423,1.55581 -3.33423,3.46037z"/>
  </g>
  <text style="cursor: move;" transform="matrix(1.09515 0 0 1 -12.2951 1)" stroke="null" font-weight="bold" xml:space="preserve" text-anchor="start" font-family="Noto Sans JP" font-size="33" stroke-width="0" id="svg_5" y="39.1665" x="74.84026" fill="#7f7f7f">i - Consult</text>
  <text style="cursor: move;" transform="matrix(1.49487 0 0 0.905296 -42.5754 6.40202)" stroke="null" font-weight="normal" xml:space="preserve" text-anchor="start" font-family="Noto Sans JP" font-size="14" stroke-width="0" id="svg_6" y="53.80655" x="75.81691" fill="#000000">care at your convenience</text>
 </g>
</svg>