<svg width="575" height="170" xmlns="http://www.w3.org/2000/svg" fill="none">

 <g>
  <title>Layer 1</title>
  <g stroke="null" stroke-width="0" fill="#000000" id="svg_4">
   <path stroke="null" id="svg_1" fill="#000000" d="m75.68069,27.1015c0,-2.81745 -2.50305,-5.1015 -5.59091,-5.1015l-11.18182,0c-3.08786,0 -5.59085,2.28399 -5.59085,5.1015l0,14.79506c0,0.2817 -0.25036,0.5101 -0.55909,0.5101l-16.21257,0c-3.08775,0 -5.59091,2.28404 -5.59091,5.1015l0,10.20299c0,2.81751 2.50311,5.10134 5.59091,5.10134l16.21257,0c0.30873,0 0.55909,0.22855 0.55909,0.51015l0,14.79383c0,2.81756 2.50299,5.1015 5.59085,5.1015l11.18182,0c3.08786,0 5.59091,-2.28394 5.59091,-5.1015l0,-14.79383c0,-0.2816 0.25047,-0.51015 0.55909,-0.51015l16.21475,0c3.08786,0 5.59091,-2.28384 5.59091,-5.10134l0,-10.20294c0,-2.81751 -2.50305,-5.1015 -5.59091,-5.1015l-16.21475,-0.00005c-0.30862,0 -0.55909,-0.22839 -0.55909,-0.5101l0,-14.79506z"/>
   <path stroke="null" id="svg_2" fill="#000000" d="m19.82019,87.03388l0,-11.44674c0,-4.22353 -3.7406,-7.65327 -8.36948,-7.67367c-4.66058,-0.02041 -8.45071,3.42106 -8.45071,7.67367l0,25.9202c0,0.52647 0.15425,1.04326 0.44688,1.49729l12.71999,19.73055c0.50229,0.779 1.41892,1.25752 2.40951,1.25752l28.59073,0c0.30873,0 0.55903,-0.22855 0.55909,-0.51015l0.00106,-20.01878c0.00017,-3.18639 -1.30704,-6.2575 -3.66434,-8.60878l-5.6381,-6.81458c-3.97038,-4.65205 -6.76964,-3.17058 -10.58471,-1.15192l-0.42323,0.22396c-0.27535,0.14488 -0.68444,0.402 -0.68444,0.402l-1.36882,0.80502l10.36415,12.99657c1.38934,1.69064 1.01363,4.08885 -0.83914,5.35657c-1.85283,1.26772 -4.48106,0.9249 -5.8704,-0.76573l-7.82604,-9.52296c-0.90707,-1.10345 -1.39739,-2.44617 -1.39739,-3.82561l0,-5.1015c0,-0.14284 0.00861,-0.28415 0.02538,-0.42291z"/>
   <path stroke="null" id="svg_3" fill="#000000" d="m109.17974,75.58714l0,11.44674c0.01677,0.13876 0.02516,0.28007 0.02516,0.42291l0,5.1015c0,1.37944 -0.49032,2.72216 -1.39717,3.82561l-7.82615,9.52296c-1.38934,1.69064 -4.01763,2.03346 -5.87045,0.76573c-1.85227,-1.26772 -2.22798,-3.66594 -0.83864,-5.35657l10.36387,-12.99657l-1.36865,-0.80502c0,0 -0.40925,-0.25712 -0.68433,-0.402c-0.14257,-0.0755 -0.28402,-0.14998 -0.42379,-0.22396c-3.81468,-2.01866 -6.61404,-3.50014 -10.58415,1.15192l-5.63843,6.81458c-2.35713,2.35128 -3.66428,5.42238 -3.66428,8.60878l0.00112,20.01878c0,0.2816 0.25047,0.51015 0.55909,0.51015l28.59079,0c0.99071,0 1.90706,-0.47852 2.40912,-1.25752l12.72044,-19.73055c0.2924,-0.45403 0.44671,-0.97081 0.44671,-1.49729l0,-25.9202c0,-4.25261 -3.79008,-7.69408 -8.45066,-7.67367c-4.62871,0.02041 -8.36959,3.45014 -8.36959,7.67367z"/>
  </g>
  <text transform="matrix(1.96147 0 0 1.85256 -132.977 -6.11366)" stroke="null" font-weight="bold" xml:space="preserve" text-anchor="start" font-family="Noto Sans JP" font-size="33" stroke-width="0" id="svg_5" y="43.87078" x="141.99666" fill="#7f7f7f">i - Consult</text>
  <text transform="matrix(2.67045 0 0 3.08801 -212.784 -117.417)" stroke="null" font-weight="normal" xml:space="preserve" text-anchor="start" font-family="Noto Sans JP" font-size="14" stroke-width="0" id="svg_6" y="77.15062" x="132.38397" fill="#000000">care at your convenience</text>
 </g>
</svg>