<svg width="400" height="120" xmlns="http://www.w3.org/2000/svg" fill="none">

 <g>
  <title>Layer 1</title>
  <g stroke="null" stroke-width="0" fill="#000000" id="svg_4">
   <path stroke="null" id="svg_1" fill="#000000" d="m52.2265,25.65097c0,-2.01636 -1.72975,-3.65097 -3.86364,-3.65097l-7.72727,0c-2.13389,0 -3.8636,1.63457 -3.8636,3.65097l0,10.58832c0,0.20161 -0.17301,0.36506 -0.38636,0.36506l-11.20381,0c-2.13381,0 -3.86364,1.63461 -3.86364,3.65097l0,7.30193c0,2.01639 1.72979,3.65086 3.86364,3.65086l11.20381,0c0.21335,0 0.38636,0.16356 0.38636,0.3651l0,10.58744c0,2.01643 1.72971,3.65097 3.8636,3.65097l7.72727,0c2.13389,0 3.86364,-1.63454 3.86364,-3.65097l0,-10.58744c0,-0.20153 0.17309,-0.3651 0.38636,-0.3651l11.20532,0c2.13389,0 3.86364,-1.63447 3.86364,-3.65086l0,-7.3019c0,-2.01639 -1.72975,-3.65097 -3.86364,-3.65097l-11.20532,-0.00004c-0.21327,0 -0.38636,-0.16345 -0.38636,-0.36506l0,-10.58832z"/>
   <path stroke="null" id="svg_2" fill="#000000" d="m13.62371,68.54253l0,-8.19204c0,-3.02264 -2.58497,-5.47718 -5.78379,-5.49179c-3.22073,-0.0146 -5.83992,2.44834 -5.83992,5.49179l0,18.5502c0,0.37678 0.1066,0.74662 0.30882,1.07156l8.79024,14.12048c0.34711,0.5575 0.98055,0.89996 1.66511,0.89996l19.75782,0c0.21335,0 0.38632,-0.16356 0.38636,-0.3651l0.00073,-14.32676c0.00012,-2.28039 -0.90324,-4.47828 -2.53227,-6.16101l-3.89625,-4.87696c-2.74376,-3.32932 -4.67821,-2.26908 -7.31464,-0.82439l-0.29248,0.16028c-0.19028,0.10369 -0.47299,0.2877 -0.47299,0.2877l-0.94593,0.57612l7.16222,9.3012c0.96011,1.20993 0.70048,2.92625 -0.57989,3.83352c-1.28041,0.90727 -3.09667,0.66192 -4.05678,-0.54801l-5.40824,-6.81526c-0.62684,-0.7897 -0.96568,-1.75064 -0.96568,-2.73786l0,-3.65097c0,-0.10223 0.00595,-0.20336 0.01754,-0.30267z"/>
   <path stroke="null" id="svg_3" fill="#000000" d="m75.37625,60.35049l0,8.19204c0.01159,0.09931 0.01739,0.20044 0.01739,0.30267l0,3.65097c0,0.98722 -0.33884,1.94816 -0.96552,2.73786l-5.40832,6.81526c-0.96011,1.20993 -2.77641,1.45528 -4.05682,0.54801c-1.28002,-0.90727 -1.53966,-2.62359 -0.57955,-3.83352l7.16202,-9.3012l-0.94582,-0.57612c0,0 -0.28282,-0.18401 -0.47291,-0.2877c-0.09852,-0.05403 -0.19627,-0.10734 -0.29286,-0.16028c-2.63616,-1.44469 -4.57068,-2.50493 -7.31425,0.82439l-3.89648,4.87696c-1.62891,1.68273 -2.53223,3.88061 -2.53223,6.16101l0.00077,14.32676c0,0.20153 0.17309,0.3651 0.38636,0.3651l19.75786,0c0.68464,0 1.31789,-0.34246 1.66484,-0.89996l8.79054,-14.12048c0.20207,-0.32494 0.3087,-0.69478 0.3087,-1.07156l0,-18.5502c0,-3.04345 -2.61916,-5.50639 -5.83989,-5.49179c-3.1987,0.0146 -5.78386,2.46915 -5.78386,5.49179z"/>
  </g>
  <text transform="matrix(1.39085 0 0 1.47921 -53.0767 -1.40669)" stroke="null" font-weight="bold" xml:space="preserve" text-anchor="start" font-family="Noto Sans JP" font-size="33" stroke-width="0" id="svg_5" y="40.49061" x="111.79925" fill="#7f7f7f">i - Consult</text>
  <text transform="matrix(1.76654 0 0 1.79523 -88.5746 -31.7325)" stroke="null" font-weight="normal" xml:space="preserve" text-anchor="start" font-family="Noto Sans JP" font-size="14" stroke-width="0" id="svg_6" y="66.56702" x="108.04258" fill="#000000">care at your convenience</text>
 </g>
</svg>