<svg width="217" height="40" xmlns="http://www.w3.org/2000/svg" stroke="null" style="vector-effect: non-scaling-stroke;" fill="none">
 <g stroke="null">
  <title stroke="null">Layer 1</title>
  <path stroke="null" style="vector-effect: non-scaling-stroke;" id="svg_1" fill="#000b6d" d="m22.9997,0c12.7029,0 23,10.2971 23,23l0,16.1c0,1.83 -0.7269,3.585 -2.0209,4.879c-1.294,1.294 -3.0491,2.021 -4.8791,2.021l-14.95,0l0,-10.0901c0,-2.3023 0.1403,-4.6874 1.3478,-6.647c0.8645,-1.4043 2.021,-2.6063 3.3909,-3.5244c1.3699,-0.9181 2.9212,-1.5308 4.5487,-1.7966l0.4405,-0.0713c0.1816,-0.0621 0.3392,-0.1794 0.4508,-0.3355c0.1116,-0.1561 0.1716,-0.3432 0.1716,-0.5351c0,-0.1919 -0.06,-0.379 -0.1716,-0.5351c-0.1116,-0.1561 -0.2692,-0.2734 -0.4508,-0.3355l-0.4405,-0.0713c-2.378,-0.3884 -4.5739,-1.514 -6.2777,-3.2178c-1.7038,-1.7038 -2.8293,-3.8997 -3.2178,-6.2777l-0.0713,-0.4404c-0.0621,-0.1816 -0.1794,-0.3393 -0.3355,-0.4509c-0.1561,-0.1116 -0.3432,-0.1716 -0.5351,-0.1716c-0.1919,0 -0.3789,0.06 -0.535,0.1716c-0.1561,0.1116 -0.2734,0.2693 -0.3355,0.4509l-0.0713,0.4404c-0.2657,1.6276 -0.8784,3.1789 -1.7965,4.5488c-0.9181,1.37 -2.1202,2.5264 -3.5246,3.3908c-1.9596,1.2075 -4.3447,1.3478 -6.647,1.3478l-10.06246,0c0.60145,-12.16815 10.65586,-21.85 22.97236,-21.85z"/>
  <path stroke="null" style="vector-effect: non-scaling-stroke;" id="svg_2" fill="#000b6d" d="m0,24.15l10.0901,0c2.3023,0 4.6874,0.1403 6.647,1.3478c1.5318,0.9439 2.8212,2.2333 3.7651,3.7651c1.2075,1.9596 1.3478,4.3447 1.3478,6.647l0,10.0901l-14.95,0c-1.82999,0 -3.58504,-0.727 -4.87904,-2.021c-1.294,-1.294 -2.02096,-3.049 -2.02096,-4.879l0,-14.95zm46,-21.85c0,0.61 -0.2423,1.19501 -0.6737,1.62635c-0.4313,0.43133 -1.0163,0.67365 -1.6263,0.67365c-0.61,0 -1.195,-0.24232 -1.6263,-0.67365c-0.4314,-0.43134 -0.6737,-1.01635 -0.6737,-1.62635c0,-0.61 0.2423,-1.19501 0.6737,-1.62635c0.4313,-0.43133 1.0163,-0.67365 1.6263,-0.67365c0.61,0 1.195,0.24232 1.6263,0.67365c0.4314,0.43134 0.6737,1.01635 0.6737,1.62635z"/>
  <path stroke="null" id="svg_3" fill="#000B6D" d="m68.39,24.352z"/>
  <text stroke="null" style="vector-effect: non-scaling-stroke;" xml:space="preserve" text-anchor="start" font-family="'EB Garamond'" font-size="36" stroke-width="0" id="svg_4" y="32.6665" x="64.16649" fill="#000b6d">i-Consult</text>
  <path stroke="null" style="vector-effect: non-scaling-stroke;" id="svg_5" fill="#000b6d" d="m22.9997,0c12.7029,0 23,10.2971 23,23l0,16.1c0,1.83 -0.7269,3.585 -2.0209,4.879c-1.294,1.294 -3.0491,2.021 -4.8791,2.021l-14.95,0l0,-10.0901c0,-2.3023 0.1403,-4.6874 1.3478,-6.647c0.8645,-1.4043 2.021,-2.6063 3.3909,-3.5244c1.3699,-0.9181 2.9212,-1.5308 4.5487,-1.7966l0.4405,-0.0713c0.1816,-0.0621 0.3392,-0.1794 0.4508,-0.3355c0.1116,-0.1561 0.1716,-0.3432 0.1716,-0.5351c0,-0.1919 -0.06,-0.379 -0.1716,-0.5351c-0.1116,-0.1561 -0.2692,-0.2734 -0.4508,-0.3355l-0.4405,-0.0713c-2.378,-0.3884 -4.5739,-1.514 -6.2777,-3.2178c-1.7038,-1.7038 -2.8293,-3.8997 -3.2178,-6.2777l-0.0713,-0.4404c-0.0621,-0.1816 -0.1794,-0.3393 -0.3355,-0.4509c-0.1561,-0.1116 -0.3432,-0.1716 -0.5351,-0.1716c-0.1919,0 -0.3789,0.06 -0.535,0.1716c-0.1561,0.1116 -0.2734,0.2693 -0.3355,0.4509l-0.0713,0.4404c-0.2657,1.6276 -0.8784,3.1789 -1.7965,4.5488c-0.9181,1.37 -2.1202,2.5264 -3.5246,3.3908c-1.9596,1.2075 -4.3447,1.3478 -6.647,1.3478l-10.06246,0c0.60145,-12.16815 10.65586,-21.85 22.97236,-21.85z"/>
  <path stroke="null" id="svg_7" fill="#000b6d" d="m209.00872,29c4.41342,0 7.99098,3.80545 7.99098,8.5l0,5.95c0,0.6763 -0.25255,1.32489 -0.70213,1.80311c-0.44958,0.47822 -1.05936,0.74689 -1.69516,0.74689l-5.19414,0l0,-3.72895c0,-0.85085 0.04874,-1.7323 0.46827,-2.4565c0.30036,-0.51898 0.70216,-0.9632 1.17811,-1.3025c0.47595,-0.3393 1.01492,-0.56573 1.58037,-0.66396l0.15304,-0.02635c0.06309,-0.02295 0.11785,-0.0663 0.15662,-0.12399c0.03877,-0.05769 0.05962,-0.12683 0.05962,-0.19775c0,-0.07092 -0.02085,-0.14007 -0.05962,-0.19775c-0.03877,-0.05769 -0.09353,-0.10104 -0.15662,-0.12399l-0.15304,-0.02635c-0.8262,-0.14354 -1.58913,-0.55952 -2.18109,-1.18919c-0.59196,-0.62967 -0.98299,-1.44119 -1.11797,-2.32002l-0.02477,-0.16276c-0.02158,-0.06711 -0.06233,-0.12539 -0.11656,-0.16664c-0.05423,-0.04124 -0.11924,-0.06342 -0.18591,-0.06342c-0.06667,0 -0.13164,0.02217 -0.18588,0.06342c-0.05423,0.04124 -0.09499,0.09952 -0.11656,0.16664l-0.02477,0.16276c-0.09231,0.6015 -0.30519,1.17481 -0.62416,1.68108c-0.31898,0.5063 -0.73663,0.93367 -1.22457,1.25312c-0.68083,0.44625 -1.5095,0.4981 -2.30939,0.4981l-3.49604,0c0.20896,-4.49693 3.70221,-8.075 7.98138,-8.075z"/>
  <text stroke="null" style="vector-effect: non-scaling-stroke;" xml:space="preserve" text-anchor="start" font-family="'EB Garamond'" font-size="36" stroke-width="0" id="svg_10" y="32.6665" x="64.16649" fill="#000b6d">i-Consult</text>
  <path stroke="null" style="vector-effect: non-scaling-stroke;" id="svg_12" fill="#000b6d" d="m-88.58169,-111.99999c87.58463,0 158.58157,28.6528 158.58157,63.99999l0,44.79999c0,5.09222 -5.01187,9.97564 -13.93382,13.57636c-8.92195,3.60071 -21.02307,5.62364 -33.64077,5.62364l-103.07788,0l0,-28.0768c0,-6.4064 0.96725,-13.0432 9.29285,-18.496c5.96047,-3.90761 13.93442,-7.25233 23.37968,-9.80698c9.44526,-2.55473 20.14136,-4.25969 31.36256,-4.9993l3.03729,-0.1984c1.25203,-0.1728 2.33874,-0.4992 3.10814,-0.9335c0.76959,-0.43437 1.18316,-0.95503 1.18316,-1.48902c0,-0.53399 -0.41357,-1.05457 -1.18316,-1.48894c-0.76939,-0.43437 -1.85611,-0.76077 -3.10814,-0.93357l-3.03729,-0.1984c-16.3958,-1.08077 -31.5362,-4.21286 -43.28369,-8.9539c-11.74749,-4.74104 -19.5077,-10.85131 -22.18619,-17.46838l-0.49176,-1.22549c-0.42806,-0.5053 -1.23694,-0.94411 -2.31314,-1.25463c-1.0762,-0.31059 -2.36633,-0.47752 -3.6894,-0.47752c-1.32307,0 -2.61241,0.16693 -3.6888,0.47752c-1.0762,0.31051 -1.88508,0.74933 -2.31314,1.25463l-0.49176,1.22549c-1.8319,4.52894 -6.05632,8.84563 -12.3865,12.65754c-6.33018,3.81214 -14.61847,7.02998 -24.30168,9.43526c-13.51112,3.36 -29.95594,3.7504 -45.83001,3.7504l-69.37916,0c4.14702,-33.85916 73.47062,-60.79999 158.39105,-60.79999z"/>
  <path stroke="null" style="vector-effect: non-scaling-stroke;" transform="translate(216 42) scale(0.31131 -2.70588) translate(-216 -42)" id="svg_15" fill="#000b6d" d="m208.00872,25c4.41342,0 7.99098,3.80545 7.99098,8.5l0,5.95c0,0.67631 -0.25255,1.32489 -0.70213,1.80311c-0.44958,0.47822 -1.05936,0.74689 -1.69517,0.74689l-5.19413,0l0,-3.72895c0,-0.85085 0.04874,-1.7323 0.46827,-2.4565c0.30035,-0.51898 0.70216,-0.9632 1.17811,-1.30249c0.47595,-0.3393 1.01493,-0.56574 1.58037,-0.66397l0.15305,-0.02635c0.06309,-0.02295 0.11785,-0.0663 0.15662,-0.12398c0.03878,-0.05769 0.05962,-0.12684 0.05962,-0.19776c0,-0.07092 -0.02084,-0.14006 -0.05962,-0.19775c-0.03877,-0.05769 -0.09353,-0.10104 -0.15662,-0.12399l-0.15305,-0.02635c-0.82619,-0.14354 -1.58912,-0.55952 -2.18108,-1.18919c-0.59196,-0.62967 -0.983,-1.44119 -1.11797,-2.32002l-0.02478,-0.16276c-0.02157,-0.06711 -0.06233,-0.12539 -0.11656,-0.16663c-0.05423,-0.04125 -0.11924,-0.06342 -0.18591,-0.06342c-0.06667,0 -0.13164,0.02217 -0.18588,0.06342c-0.05423,0.04124 -0.09499,0.09952 -0.11656,0.16663l-0.02478,0.16276c-0.09231,0.6015 -0.30518,1.17481 -0.62416,1.68108c-0.31898,0.5063 -0.73663,0.93367 -1.22457,1.25312c-0.68083,0.44625 -1.50949,0.4981 -2.30939,0.4981l-3.49604,0c0.20897,-4.49692 3.70221,-8.075 7.98138,-8.075z"/>
  <path stroke="null" id="svg_17" fill="#000b6d" d="m-2.99128,5c4.41342,0 7.99098,3.80545 7.99098,8.5l0,5.95c0,0.67631 -0.25255,1.32489 -0.70213,1.80311c-0.44958,0.47822 -1.05936,0.74689 -1.69517,0.74689l-5.19413,0l0,-3.72895c0,-0.85085 0.04874,-1.7323 0.46827,-2.4565c0.30035,-0.51898 0.70216,-0.9632 1.17811,-1.30249c0.47595,-0.3393 1.01493,-0.56574 1.58037,-0.66397l0.15305,-0.02635c0.06309,-0.02295 0.11785,-0.0663 0.15662,-0.12398c0.03878,-0.05769 0.05962,-0.12684 0.05962,-0.19776c0,-0.07092 -0.02084,-0.14006 -0.05962,-0.19775c-0.03877,-0.05769 -0.09353,-0.10104 -0.15662,-0.12399l-0.15305,-0.02635c-0.82619,-0.14354 -1.58912,-0.55952 -2.18108,-1.18919c-0.59196,-0.62967 -0.983,-1.44119 -1.11797,-2.32002l-0.02478,-0.16276c-0.02157,-0.06711 -0.06233,-0.12539 -0.11656,-0.16663c-0.05423,-0.04125 -0.11924,-0.06342 -0.18591,-0.06342c-0.06667,0 -0.13164,0.02217 -0.18588,0.06342c-0.05423,0.04124 -0.09499,0.09952 -0.11656,0.16663l-0.02478,0.16276c-0.09231,0.6015 -0.30518,1.17481 -0.62416,1.68108c-0.31898,0.5063 -0.73663,0.93367 -1.22457,1.25312c-0.68083,0.44625 -1.50949,0.4981 -2.30939,0.4981l-3.49604,0c0.20897,-4.49692 3.70221,-8.075 7.98138,-8.075z"/>
 </g>

</svg>